PathFileType	4	(X/Y/Z)	C:\Users\chris\Documents\GitHub\baseballds\vids\pitch5_Sports2D\pitch5_Sports2D_px_person02.trc
DataRate	CameraRate	NumFrames	NumMarkers	Units	OrigDataRate	OrigDataStartFrame	OrigNumFrames
30	30	5	22	m	30	18	149
Frame#	Time	Hip			RHip			RKnee			RAnkle			RBigToe			RSmallToe			RHeel			LHip			LKnee			LAnkle			LBigToe			LSmallToe			LHeel			Neck			Head			Nose			RShoulder			RElbow			RWrist			LShoulder			LElbow			LWrist		
		X1	Y1	Z1	X2	Y2	Z2	X3	Y3	Z3	X4	Y4	Z4	X5	Y5	Z5	X6	Y6	Z6	X7	Y7	Z7	X8	Y8	Z8	X9	Y9	Z9	X10	Y10	Z10	X11	Y11	Z11	X12	Y12	Z12	X13	Y13	Z13	X14	Y14	Z14	X15	Y15	Z15	X16	Y16	Z16	X17	Y17	Z17	X18	Y18	Z18	X19	Y19	Z19	X20	Y20	Z20	X21	Y21	Z21	X22	Y22	Z22
18	0.6	954.5864859279359	461.6323022656197	0.0	965.9037187358244	462.22289061652754	0.0	986.1151804217225	511.98367479385615	0.0	977.9863499710673	561.3116637506743	0.0	990.7495633622381	573.2756780294305	0.0	990.3144062011484	573.7500356727388	0.0	973.0534596114992	567.3506338248984	0.0	945.2419500856706	460.9982306695347	0.0	928.3063402593741	512.7908023903597	0.0	903.9962122606692	554.5374493336767	0.0	904.4406337854912	580.0593906404847	0.0	900.2048388139978	577.2243014808024	0.0	900.0304011889068	558.6401567471477	0.0	973.6818827243251	399.43089209142477	0.0	984.1696302160394	368.59188292345254	0.0	984.9845615792935	386.16904473077005	0.0	983.3575210367006	405.5147534887385	0.0	971.6398663398313	418.6495540903427	0.0	977.8898902092221	449.27024969185976	0.0	957.2551567357253	407.2510115185601	0.0	941.1961977185948	434.8512937454359	0.0	977.9865874802812	447.4292408641935	0.0
19	0.6333333333333333	966.5645126402374	461.24384426466645	0.0	977.9839774248172	461.46731715966195	0.0	994.7806930141803	515.0126849215513	0.0	997.1605716632542	565.6534694125907	0.0	1011.7037934853379	571.3465536138705	0.0	1012.7502831891634	574.4613789724042	0.0	994.8152315649968	573.2935795438494	0.0	957.0659247586424	459.8584937405774	0.0	938.0541951877426	510.5996538135116	0.0	910.5600488474445	545.15051804465	0.0	905.0280884723045	571.9340157100456	0.0	901.6072308400653	568.7662447570118	0.0	905.6650180250165	547.5372760231952	0.0	985.6944708812905	398.6085244139895	0.0	995.8645027470811	368.30327536151526	0.0	996.137299688512	385.60669968833525	0.0	995.0048530406558	405.67764443346334	0.0	981.1998069782799	419.7940359357277	0.0	989.1574967988834	448.49780300498816	0.0	968.6131739315381	406.75232301857204	0.0	951.8926540789753	432.94725649167594	0.0	991.8435513141371	446.3801120090985	0.0
20	0.6666666666666666	978.5022228546077	462.77015815604324	0.0	989.8570116865397	462.4188834274609	0.0	1004.367753486875	517.9229722361637	0.0	1012.6853989674089	567.4850399165795	0.0	1027.182047701831	569.7420939746423	0.0	1029.4865348412934	574.7569903357731	0.0	1012.1980264145569	575.9267249853896	0.0	968.9303039656288	460.4568841358272	0.0	949.1812945726596	510.63607369642534	0.0	919.4943871951014	534.6073403205482	0.0	907.0385992938545	560.2250898652276	0.0	905.2427867489906	556.9686783504445	0.0	913.5044830677485	535.552537535259	0.0	997.0887309560821	399.6888857431577	0.0	1006.4826268579009	370.24867679508145	0.0	1005.8430504538528	386.7901939894775	0.0	1006.1370171975173	407.5346846214666	0.0	991.9893953318124	422.3547819284103	0.0	1001.6369329388135	449.8927849120464	0.0	979.4573508629873	407.9022292209242	0.0	963.0020350174789	432.39737934375324	0.0	1001.1646421368253	446.7201690498157	0.0
21	0.7	989.9958192658476	465.7104253653335	0.0	1001.2618935083358	465.0289520131165	0.0	1015.1234195608415	520.5382789089035	0.0	1023.5235549499386	569.0997890979121	0.0	1037.0289674178136	571.6548933936789	0.0	1039.612267306115	576.6430318894219	0.0	1023.5184049078867	577.2866819623466	0.0	980.6660382225101	462.6998294079418	0.0	961.3050086051704	513.2039363674338	0.0	931.4213568140424	524.2511832289895	0.0	913.2028061411609	546.7286103294477	0.0	912.475901777716	543.9573329679274	0.0	925.0209062286837	523.3959100551081	0.0	1008.352210327027	402.71599298410297	0.0	1017.2833891634795	373.80522433574885	0.0	1016.0948110323652	389.7491095492886	0.0	1016.640444538166	411.17351707335405	0.0	1003.516473095853	426.88898258135305	0.0	1015.1424016962224	453.85806252631176	0.0	990.155332537342	410.43398568749836	0.0	973.5543166922104	433.7371441491455	0.0	1002.2037534181054	448.83356522788233	0.0
22	0.7333333333333333	1001.070046722809	469.6149646780468	0.0	1011.8783231418229	469.5746120575102	0.0	1026.5169625403796	523.3907981102334	0.0	1030.036759004901	571.4986288529245	0.0	1042.958475895112	576.9693279698564	0.0	1044.589918727217	580.3952126795532	0.0	1029.2116590253581	578.7997446005567	0.0	991.9488752810132	466.9541946940268	0.0	974.2523480688119	518.1742388561502	0.0	945.7040779720902	516.4470085050012	0.0	924.6546558737568	533.874216286844	0.0	924.2545345251049	531.8472854069208	0.0	939.9627544599302	513.3515154643388	0.0	1019.4304144970497	407.52941639858057	0.0	1028.2861279131646	378.35382931091607	0.0	1027.3490374254006	394.6043064863778	0.0	1026.9388846489871	416.7334293803401	0.0	1015.7067092231202	434.1231480488654	0.0	1029.3899016136081	460.022246503677	0.0	1000.8660059399017	414.55248601994396	0.0	983.387592026775	436.87873498125157	0.0	1002.3207110692838	452.59199454563856	0.0
